<svg width="202" height="79" viewBox="0 0 202 79" fill="none" xmlns="http://www.w3.org/2000/svg">
<path d="M86.2385 52.9351V50.803H88.6559V30.296L80.0441 47.8568H77.4756L68.8638 30.296V50.803H71.9611V52.9351H64.3313V50.803H66.4843V27.9313H64.3313V25.7992H69.0527L78.7599 45.6472L88.467 25.7992H93.4528V27.9313H91.0355V50.803H93.8683V52.9351H86.2385Z" fill="#4E416F"/>
<path d="M104.328 53.0901C101.709 53.0901 99.5811 52.3148 97.9443 50.7642C96.3327 49.2136 95.527 46.8489 95.527 43.6701C95.527 40.4655 96.3831 37.9587 98.0954 36.1496C99.8329 34.3147 102.011 33.3973 104.63 33.3973C107.249 33.3973 109.376 34.1726 111.013 35.7232C112.65 37.2738 113.468 39.6514 113.468 42.856C113.468 46.0348 112.599 48.5416 110.862 50.3765C109.15 52.1856 106.972 53.0901 104.328 53.0901ZM104.554 35.6457C102.691 35.6457 101.13 36.3434 99.8706 37.739C98.6116 39.1345 97.9821 41.0341 97.9821 43.4375C97.9821 45.8151 98.5738 47.65 99.7573 48.9422C100.966 50.2086 102.515 50.8417 104.403 50.8417C106.292 50.8417 107.866 50.1569 109.125 48.7872C110.384 47.3916 111.013 45.505 111.013 43.1274C111.013 40.7239 110.409 38.8761 109.2 37.5839C107.991 36.2917 106.443 35.6457 104.554 35.6457Z" fill="#4E416F"/>
<path d="M125.307 53.0901C122.688 53.0901 120.56 52.3148 118.923 50.7642C117.312 49.2136 116.506 46.8489 116.506 43.6701C116.506 40.4655 117.362 37.9587 119.075 36.1496C120.812 34.3147 122.99 33.3973 125.609 33.3973C128.228 33.3973 130.356 34.1726 131.992 35.7232C133.629 37.2738 134.447 39.6514 134.447 42.856C134.447 46.0348 133.579 48.5416 131.841 50.3765C130.129 52.1856 127.951 53.0901 125.307 53.0901ZM125.533 35.6457C123.67 35.6457 122.109 36.3434 120.85 37.739C119.591 39.1345 118.961 41.0341 118.961 43.4375C118.961 45.8151 119.553 47.65 120.737 48.9422C121.945 50.2086 123.494 50.8417 125.382 50.8417C127.271 50.8417 128.845 50.1569 130.104 48.7872C131.363 47.3916 131.992 45.505 131.992 43.1274C131.992 40.7239 131.388 38.8761 130.179 37.5839C128.971 36.2917 127.422 35.6457 125.533 35.6457Z" fill="#4E416F"/>
<path d="M136.162 35.4906V33.5523H141.148V35.7232C143.212 34.2759 145.189 33.5136 147.078 33.436C148.916 33.436 150.313 33.8108 151.27 34.5602C151.698 34.8962 152.076 35.426 152.403 36.1496C152.756 36.8474 152.932 37.6873 152.932 38.6694V50.9968H155.841V52.9351H148.211V50.9968H150.477V39.6385C150.477 37.1317 149.042 35.8782 146.171 35.8782C144.61 35.9299 142.935 36.4597 141.148 37.4676V50.9968H143.98V52.9351H136.351V50.9968H138.693V35.4906H136.162Z" fill="#4E416F"/>
<path d="M160.905 50.4153C161.962 50.7513 162.806 50.9193 163.435 50.9193C164.09 50.9193 164.518 50.9063 164.719 50.8805C166.029 50.8546 167.124 50.5704 168.006 50.0277C168.887 49.4849 169.328 48.7225 169.328 47.7405C169.328 46.7584 168.975 45.996 168.27 45.4533C167.59 44.9106 166.759 44.4971 165.777 44.2128C164.795 43.9285 163.813 43.6184 162.831 43.2825C161.849 42.9465 161.005 42.4167 160.3 41.6931C159.62 40.9694 159.28 40.0262 159.28 38.8632C159.28 37.2092 159.897 35.8912 161.131 34.9091C162.365 33.9012 163.926 33.3973 165.815 33.3973C167.225 33.3973 168.648 33.6557 170.083 34.1726L170.763 34.4439V38.902L168.912 39.1733L168.761 35.8782C167.754 35.7232 166.91 35.6457 166.23 35.6457C164.845 35.6457 163.75 35.9299 162.944 36.4985C162.138 37.0412 161.736 37.7519 161.736 38.6306C161.736 39.4834 162.075 40.1554 162.755 40.6464C163.46 41.1374 164.304 41.5251 165.286 41.8094C166.268 42.0936 167.25 42.4167 168.232 42.7785C169.214 43.1145 170.045 43.683 170.725 44.4842C171.43 45.2595 171.783 46.2803 171.783 47.5467C171.783 49.2523 171.153 50.6091 169.894 51.617C168.66 52.5991 166.898 53.0901 164.606 53.0901C162.315 53.0901 160.414 52.5345 158.903 51.4232V46.9652L160.716 46.6938L160.905 50.4153Z" fill="#4E416F"/>
<path d="M174.181 35.4906V33.5523H179.167V50.9968H182V52.9351H174.37V50.9968H176.712V35.4906H174.181ZM177.883 28.3577C177.379 28.3577 176.989 28.2027 176.712 27.8926C176.435 27.5566 176.297 27.1302 176.297 26.6133C176.297 26.0706 176.435 25.6442 176.712 25.334C177.014 24.9981 177.417 24.8301 177.921 24.8301C178.424 24.8301 178.827 24.9981 179.129 25.334C179.457 25.6442 179.62 26.0835 179.62 26.6521C179.62 27.1948 179.457 27.6212 179.129 27.9313C178.802 28.2156 178.387 28.3577 177.883 28.3577Z" fill="#4E416F"/>
<path fill-rule="evenodd" clip-rule="evenodd" d="M52.0059 52.163C50.8048 52.4162 49.561 52.5492 48.287 52.5492C38.1322 52.5492 29.9002 44.1004 29.9002 33.6784C29.9002 28.7979 31.7054 24.3501 34.6679 21C26.296 22.7649 20 30.3702 20 39.4847C20 49.9068 28.232 58.3555 38.3868 58.3555C43.7862 58.3555 48.6421 55.9669 52.0059 52.163Z" fill="#4E416F"/>
</svg>
