<svg width="202" height="79" viewBox="0 0 202 79" fill="none" xmlns="http://www.w3.org/2000/svg">
<path d="M67.7001 29.3062H73.9806C73.9806 29.3062 73.9806 29.3847 73.9806 29.5418C73.9806 30.0132 73.9131 30.3373 73.778 30.514C73.5272 30.8283 73.2088 31.005 72.8229 31.0443L71.8678 31.1032V45.3914C71.8678 47.1001 71.4144 48.5043 70.5075 49.6042C69.6006 50.704 68.3754 51.2539 66.8318 51.2539C66.0214 51.2539 65.3461 51.0379 64.8059 50.6058C64.2849 50.1737 64.0244 49.6631 64.0244 49.0739C64.0244 48.465 64.1884 47.9839 64.5164 47.6303C64.8444 47.2572 65.3654 47.0804 66.0793 47.1001C66.1179 48.4356 66.6003 49.1033 67.5264 49.1033C67.9702 49.1033 68.2982 48.8578 68.5105 48.3668C68.7227 47.8562 68.8289 46.9429 68.8289 45.6271V31.1622H68.7999L66.6003 30.9854C66.4845 29.8659 66.8511 29.3062 67.7001 29.3062Z" fill="#4E416F"/>
<path d="M88.9122 48.2195C88.9122 49.2997 88.2079 49.8399 86.7994 49.8399C85.4101 49.8399 84.5515 49.2997 84.2235 48.2195C82.9693 49.2997 81.5994 49.8399 80.1137 49.8399C78.628 49.8399 77.4799 49.4863 76.6695 48.7793C75.8591 48.0526 75.4539 47.0608 75.4539 45.8038C75.4539 44.5469 75.917 43.5059 76.8432 42.681C77.7886 41.8562 79.3033 41.4437 81.3871 41.4437C82.294 41.4437 83.1816 41.5223 84.0498 41.6794V40.0296C84.0498 37.5354 83.0947 36.2882 81.1845 36.2882C80.4127 36.2882 79.7953 36.5533 79.3322 37.0836C78.8884 37.6139 78.6473 38.2817 78.6087 39.0869C77.9526 39.1458 77.4027 39.028 76.9589 38.7334C76.5345 38.4388 76.3222 37.9871 76.3222 37.3782C76.3222 36.4748 76.7756 35.7285 77.6825 35.1393C78.6087 34.5501 79.8532 34.2555 81.4161 34.2555C82.9983 34.2555 84.32 34.6875 85.3812 35.5517C86.4617 36.4159 87.002 37.8496 87.002 39.8529V47.9839L88.9122 48.2195ZM84.0498 43.7416C83.278 43.4077 82.4291 43.2408 81.5029 43.2408C80.596 43.2408 79.8821 43.4372 79.3612 43.83C78.8402 44.2228 78.5797 44.7825 78.5797 45.5092C78.5797 46.2163 78.7823 46.7662 79.1875 47.159C79.5927 47.5518 80.2487 47.7482 81.1556 47.7482C82.0818 47.7482 83.0465 47.3848 84.0498 46.6582V43.7416Z" fill="#4E416F"/>
<path d="M99.2061 34.6974H104.155V34.9036C104.155 35.3749 104.088 35.699 103.953 35.8758C103.702 36.19 103.383 36.3668 102.998 36.406L102.303 36.4355L98.5405 40.7072L103.403 47.5714L105.342 47.7482C105.4 48.2392 105.303 48.6418 105.053 48.956C104.802 49.2506 104.493 49.3979 104.126 49.3979H101.29L96.6882 42.8283L95.1832 44.5076V47.5714L97.3249 47.7482C97.4407 48.848 97.0644 49.3979 96.1961 49.3979H90.1182V49.1623C90.1182 48.2588 90.4945 47.7678 91.247 47.6893L92.231 47.6303V30.8676L90.9576 30.7497C90.3401 30.6711 90.0314 30.131 90.0314 29.1294L95.1832 28.5107V41.9151L99.7561 36.5239L98.0774 36.3471C97.9616 35.2473 98.3379 34.6974 99.2061 34.6974Z" fill="#4E416F"/>
<path d="M109.289 41.974V42.5337C109.289 44.1639 109.598 45.411 110.215 46.2752C110.833 47.1393 111.855 47.5714 113.283 47.5714C114.73 47.5714 116.11 47.0411 117.422 45.9806C117.75 46.2163 117.914 46.5698 117.914 47.0411C117.914 47.6696 117.383 48.2981 116.322 48.9266C115.261 49.5354 113.987 49.8399 112.502 49.8399C110.514 49.8399 108.961 49.231 107.842 48.0133C106.742 46.776 106.192 44.9004 106.192 42.3864C106.192 39.8725 106.819 37.8889 108.074 36.4355C109.328 34.9821 110.9 34.2555 112.791 34.2555C114.701 34.2555 116.091 34.8348 116.959 35.9936C117.827 37.1524 118.252 38.6156 118.232 40.3832V41.974H109.289ZM112.704 36.2882C110.949 36.2882 109.868 37.5943 109.463 40.2064H115.309C115.251 37.5943 114.383 36.2882 112.704 36.2882Z" fill="#4E416F"/>
<path d="M138.317 29.3062H143.729C143.729 29.8954 143.662 30.2882 143.527 30.4846C143.276 30.8577 142.967 31.0443 142.601 31.0443L141.443 31.1032L135.712 38.3504L142.08 47.5714L143.903 47.7482C144.019 47.9839 143.98 48.3177 143.787 48.7498C143.594 49.1819 143.257 49.3979 142.774 49.3979H139.619L133.744 40.8545L132.673 42.1802V47.542L134.989 47.7187C135.104 48.8382 134.728 49.3979 133.86 49.3979H127.493V49.1623C127.493 48.2392 127.869 47.7384 128.621 47.6598L129.634 47.6009V31.1622L127.55 30.9854C127.435 29.8659 127.801 29.3062 128.65 29.3062H134.844V29.5418C134.844 30.4649 134.468 30.9658 133.715 31.0443L132.673 31.1032V39.411L139.07 31.1327L137.188 30.9854C137.073 29.8659 137.449 29.3062 138.317 29.3062Z" fill="#4E416F"/>
<path d="M158.634 48.2195C158.634 49.2997 157.93 49.8399 156.521 49.8399C155.132 49.8399 154.273 49.2997 153.945 48.2195C152.691 49.2997 151.321 49.8399 149.835 49.8399C148.35 49.8399 147.202 49.4863 146.391 48.7793C145.581 48.0526 145.176 47.0608 145.176 45.8038C145.176 44.5469 145.639 43.5059 146.565 42.681C147.51 41.8562 149.025 41.4437 151.109 41.4437C152.016 41.4437 152.903 41.5223 153.772 41.6794V40.0296C153.772 37.5354 152.816 36.2882 150.906 36.2882C150.134 36.2882 149.517 36.5533 149.054 37.0836C148.61 37.6139 148.369 38.2817 148.33 39.0869C147.674 39.1458 147.124 39.028 146.681 38.7334C146.256 38.4388 146.044 37.9871 146.044 37.3782C146.044 36.4748 146.497 35.7285 147.404 35.1393C148.33 34.5501 149.575 34.2555 151.138 34.2555C152.72 34.2555 154.042 34.6875 155.103 35.5517C156.183 36.4159 156.724 37.8496 156.724 39.8529V47.9839L158.634 48.2195ZM153.772 43.7416C153 43.4077 152.151 43.2408 151.225 43.2408C150.318 43.2408 149.604 43.4372 149.083 43.83C148.562 44.2228 148.301 44.7825 148.301 45.5092C148.301 46.2163 148.504 46.7662 148.909 47.159C149.314 47.5518 149.97 47.7482 150.877 47.7482C151.804 47.7482 152.768 47.3848 153.772 46.6582V43.7416Z" fill="#4E416F"/>
<path d="M164.789 36.7596C165.31 36.1311 165.995 35.5615 166.844 35.0509C167.693 34.5206 168.417 34.2555 169.015 34.2555C169.632 34.2555 170.134 34.4322 170.52 34.7857C170.925 35.1393 171.128 35.7677 171.128 36.6712C171.128 37.555 170.867 38.2424 170.346 38.7334C170.037 38.9691 169.545 39.0575 168.87 38.9985C168.87 38.154 168.783 37.5845 168.61 37.2899C168.436 36.9756 168.156 36.8185 167.77 36.8185C166.844 36.8185 165.879 37.4666 164.876 38.7629V47.5714L167.278 47.7482C167.394 48.848 167.018 49.3979 166.149 49.3979H159.811C159.811 49.3979 159.811 49.3194 159.811 49.1623C159.811 48.2588 160.187 47.7678 160.94 47.6893L161.924 47.6303V36.7006L160.535 36.5533C160.014 36.4944 159.753 35.9838 159.753 35.0214L164.471 34.4028L164.702 36.7596H164.789Z" fill="#4E416F"/>
<path d="M176.414 36.4944V44.8611C176.414 46.6287 176.955 47.5125 178.035 47.5125C178.73 47.5125 179.318 47.4241 179.801 47.2474C180.283 47.051 180.833 46.7073 181.45 46.2163C181.547 46.2359 181.662 46.3537 181.798 46.5698C181.933 46.7858 182 47.0117 182 47.2474C182 47.9348 181.498 48.5436 180.495 49.0739C179.492 49.5845 178.469 49.8399 177.427 49.8399C175.884 49.8399 174.832 49.3979 174.273 48.5141C173.732 47.6303 173.462 46.4028 173.462 44.8316V36.4944H171.176C171.176 35.2964 171.571 34.6974 172.362 34.6974H173.462V31.0443L176.414 30.6024V34.6974H181.711C181.749 34.9527 181.72 35.2276 181.624 35.5222C181.47 36.1311 181.151 36.4551 180.669 36.4944H176.414Z" fill="#4E416F"/>
<path fill-rule="evenodd" clip-rule="evenodd" d="M53.1956 23H20V56.7894H53.1956V23ZM32.6182 31.4475H27.276C26.5538 31.4475 26.242 31.9053 26.3405 32.8209L28.2115 32.9655H28.2361V44.796C28.2361 45.8722 28.1458 46.6192 27.9653 47.0368C27.7848 47.4384 27.5058 47.6392 27.1283 47.6392C26.3405 47.6392 25.9302 47.093 25.8973 46.0007C25.2901 45.9847 24.8469 46.1293 24.5679 46.4345C24.2889 46.7236 24.1494 47.1171 24.1494 47.6151C24.1494 48.097 24.371 48.5146 24.8141 48.868C25.2737 49.2214 25.8481 49.3981 26.5374 49.3981C27.8504 49.3981 28.8926 48.9483 29.664 48.0488C30.4354 47.1493 30.8211 46.0007 30.8211 44.6033V32.9173L31.6335 32.8691C31.9617 32.837 32.2325 32.6924 32.4459 32.4354C32.5608 32.2908 32.6182 32.0258 32.6182 31.6403V31.4475ZM47.8056 31.4475H43.2019C42.4634 31.4475 42.1433 31.9053 42.2418 32.8209L43.842 32.9414L38.4013 39.712V32.9173L39.2876 32.8691C39.9277 32.8048 40.2477 32.3952 40.2477 31.6403V31.4475H34.9793C34.2572 31.4475 33.9453 31.9053 34.0438 32.8209L35.8163 32.9655V46.4104L34.9547 46.4585C34.3146 46.5228 33.9946 46.9324 33.9946 47.6874V47.8801H39.4107C40.1492 47.8801 40.4693 47.4223 40.3708 46.5067L38.4013 46.3622V41.9769L39.3122 40.8927L44.3098 47.8801H46.9932C47.4035 47.8801 47.6907 47.7034 47.8549 47.3501C48.019 46.9967 48.0518 46.7236 47.9533 46.5308L46.4024 46.3863L40.9863 38.8446L45.8608 32.9173L46.8455 32.8691C47.1573 32.8691 47.4199 32.7165 47.6333 32.4113C47.7482 32.2507 47.8056 31.9294 47.8056 31.4475Z" fill="#4E416F"/>
</svg>
