<svg width="202" height="79" viewBox="0 0 202 79" fill="none" xmlns="http://www.w3.org/2000/svg">
<path d="M66.1953 29.577H74.8288C76.9709 29.577 78.638 30.1177 79.8301 31.1991C81.0222 32.2611 81.6183 33.7191 81.6183 35.5729C81.6183 37.4267 81.0129 38.8942 79.8022 39.9756C78.6101 41.057 76.9523 41.5977 74.8288 41.5977H69.7996V50.2004H66.1953V29.577ZM74.4097 38.7011C75.6577 38.7011 76.5984 38.4404 77.2317 37.9191C77.8836 37.3784 78.2096 36.606 78.2096 35.6018C78.2096 34.5784 77.8929 33.806 77.2596 33.2846C76.6263 32.7439 75.6764 32.4736 74.4097 32.4736H69.7996V38.7011H74.4097Z" fill="#4E416F"/>
<path d="M89.0353 50.4321C87.6011 50.4321 86.3344 50.1232 85.2355 49.5053C84.1551 48.8873 83.3169 48.0087 82.7208 46.8694C82.1434 45.7108 81.8547 44.3591 81.8547 42.8142C81.8547 41.2694 82.1434 39.9273 82.7208 38.788C83.3169 37.6294 84.1551 36.7411 85.2355 36.1232C86.3344 35.5053 87.6011 35.1963 89.0353 35.1963C90.451 35.1963 91.699 35.5053 92.7793 36.1232C93.8597 36.7411 94.6886 37.6294 95.266 38.788C95.8621 39.9273 96.1601 41.2694 96.1601 42.8142C96.1601 44.3591 95.8621 45.7108 95.266 46.8694C94.6886 48.0087 93.8597 48.8873 92.7793 49.5053C91.699 50.1232 90.451 50.4321 89.0353 50.4321ZM89.0074 47.5935C90.1995 47.5935 91.1029 47.1977 91.7176 46.4059C92.3509 45.5949 92.6676 44.3977 92.6676 42.8142C92.6676 41.2501 92.3509 40.0625 91.7176 39.2515C91.0843 38.4211 90.1902 38.006 89.0353 38.006C87.8618 38.006 86.9584 38.4211 86.3251 39.2515C85.6918 40.0625 85.3752 41.2501 85.3752 42.8142C85.3752 44.3977 85.6825 45.5949 86.2972 46.4059C86.9305 47.1977 87.8339 47.5935 89.0074 47.5935Z" fill="#4E416F"/>
<path d="M114.427 35.1963C116.029 35.1963 117.221 35.6984 118.004 36.7025C118.786 37.6873 119.177 39.1935 119.177 41.2211V50.2004H115.685V41.337C115.685 40.1784 115.498 39.348 115.126 38.846C114.772 38.3246 114.176 38.0639 113.338 38.0639C112.369 38.0639 111.605 38.4211 111.047 39.1356C110.506 39.8308 110.236 40.7963 110.236 42.0322V50.2004H106.744V41.337C106.744 40.1977 106.548 39.3673 106.157 38.846C105.784 38.3246 105.188 38.0639 104.369 38.0639C103.4 38.0639 102.637 38.4211 102.078 39.1356C101.519 39.8308 101.24 40.7963 101.24 42.0322V50.2004H97.7749V39.7149C97.7749 38.1701 97.7004 36.7894 97.5514 35.5729H100.82L101.072 37.8901C101.482 37.0211 102.068 36.3549 102.832 35.8915C103.614 35.428 104.509 35.1963 105.514 35.1963C107.675 35.1963 109.081 36.1232 109.733 37.977C110.18 37.108 110.814 36.4322 111.633 35.9494C112.471 35.4473 113.403 35.1963 114.427 35.1963Z" fill="#4E416F"/>
<path d="M129.555 35.1963C130.765 35.1963 131.836 35.5246 132.768 36.1811C133.718 36.8184 134.453 37.726 134.975 38.9039C135.515 40.0625 135.785 41.3949 135.785 42.9011C135.785 44.4073 135.524 45.7301 135.003 46.8694C134.481 48.0087 133.746 48.8873 132.796 49.5053C131.864 50.1232 130.784 50.4321 129.555 50.4321C128.53 50.4321 127.617 50.2101 126.816 49.7659C126.015 49.3025 125.401 48.6653 124.972 47.8542V56.457H121.508V39.7149C121.508 38.1701 121.433 36.7894 121.284 35.5729H124.553L124.833 38.0929C125.205 37.1853 125.811 36.4804 126.649 35.9784C127.487 35.457 128.456 35.1963 129.555 35.1963ZM128.605 47.5935C129.778 47.5935 130.681 47.188 131.315 46.377C131.948 45.5659 132.265 44.4073 132.265 42.9011C132.265 41.3756 131.948 40.188 131.315 39.3384C130.681 38.4694 129.787 38.0349 128.632 38.0349C127.44 38.0349 126.528 38.4501 125.894 39.2804C125.261 40.1108 124.944 41.2984 124.944 42.8432C124.944 44.3687 125.261 45.5466 125.894 46.377C126.528 47.188 127.431 47.5935 128.605 47.5935Z" fill="#4E416F"/>
<path d="M143.835 50.4321C142.401 50.4321 141.134 50.1232 140.035 49.5053C138.955 48.8873 138.117 48.0087 137.521 46.8694C136.943 45.7108 136.655 44.3591 136.655 42.8142C136.655 41.2694 136.943 39.9273 137.521 38.788C138.117 37.6294 138.955 36.7411 140.035 36.1232C141.134 35.5053 142.401 35.1963 143.835 35.1963C145.251 35.1963 146.499 35.5053 147.579 36.1232C148.66 36.7411 149.488 37.6294 150.066 38.788C150.662 39.9273 150.96 41.2694 150.96 42.8142C150.96 44.3591 150.662 45.7108 150.066 46.8694C149.488 48.0087 148.66 48.8873 147.579 49.5053C146.499 50.1232 145.251 50.4321 143.835 50.4321ZM143.807 47.5935C144.999 47.5935 145.903 47.1977 146.517 46.4059C147.151 45.5949 147.467 44.3977 147.467 42.8142C147.467 41.2501 147.151 40.0625 146.517 39.2515C145.884 38.4211 144.99 38.006 143.835 38.006C142.662 38.006 141.758 38.4211 141.125 39.2515C140.492 40.0625 140.175 41.2501 140.175 42.8142C140.175 44.3977 140.482 45.5949 141.097 46.4059C141.73 47.1977 142.634 47.5935 143.807 47.5935Z" fill="#4E416F"/>
<path d="M166.07 28.8818V50.2004H162.633V47.8542C162.205 48.6653 161.59 49.3025 160.789 49.7659C159.988 50.2101 159.076 50.4321 158.051 50.4321C156.84 50.4321 155.76 50.1135 154.81 49.4763C153.86 48.839 153.115 47.9411 152.575 46.7825C152.053 45.6046 151.793 44.2625 151.793 42.7563C151.793 41.2501 152.053 39.9273 152.575 38.788C153.096 37.6487 153.832 36.7701 154.782 36.1522C155.732 35.5149 156.822 35.1963 158.051 35.1963C159.057 35.1963 159.951 35.4184 160.733 35.8625C161.534 36.2873 162.149 36.8956 162.577 37.6873V28.8818H166.07ZM158.973 47.5935C160.128 47.5935 161.022 47.1784 161.655 46.348C162.307 45.5177 162.633 44.3397 162.633 42.8142C162.633 41.2887 162.317 40.1108 161.683 39.2804C161.05 38.4501 160.156 38.0349 159.001 38.0349C157.828 38.0349 156.915 38.4501 156.263 39.2804C155.63 40.0915 155.313 41.2501 155.313 42.7563C155.313 44.2818 155.63 45.4694 156.263 46.319C156.915 47.1687 157.818 47.5935 158.973 47.5935Z" fill="#4E416F"/>
<path d="M174.875 50.4321C173.441 50.4321 172.174 50.1232 171.075 49.5053C169.995 48.8873 169.157 48.0087 168.561 46.8694C167.983 45.7108 167.694 44.3591 167.694 42.8142C167.694 41.2694 167.983 39.9273 168.561 38.788C169.157 37.6294 169.995 36.7411 171.075 36.1232C172.174 35.5053 173.441 35.1963 174.875 35.1963C176.291 35.1963 177.539 35.5053 178.619 36.1232C179.699 36.7411 180.528 37.6294 181.106 38.788C181.702 39.9273 182 41.2694 182 42.8142C182 44.3591 181.702 45.7108 181.106 46.8694C180.528 48.0087 179.699 48.8873 178.619 49.5053C177.539 50.1232 176.291 50.4321 174.875 50.4321ZM174.847 47.5935C176.039 47.5935 176.943 47.1977 177.557 46.4059C178.191 45.5949 178.507 44.3977 178.507 42.8142C178.507 41.2501 178.191 40.0625 177.557 39.2515C176.924 38.4211 176.03 38.006 174.875 38.006C173.702 38.006 172.798 38.4211 172.165 39.2515C171.532 40.0625 171.215 41.2501 171.215 42.8142C171.215 44.3977 171.522 45.5949 172.137 46.4059C172.77 47.1977 173.674 47.5935 174.847 47.5935Z" fill="#4E416F"/>
<path fill-rule="evenodd" clip-rule="evenodd" d="M53.4798 39.3542C53.4798 48.9386 45.9851 56.7083 36.7399 56.7083C27.4947 56.7083 20 48.9386 20 39.3542C20 29.7697 27.4947 22 36.7399 22C45.9851 22 53.4798 29.7697 53.4798 39.3542ZM40.9246 29.5927C40.9246 31.9888 39.051 33.9312 36.7397 33.9312C34.4284 33.9312 32.5547 31.9888 32.5547 29.5927C32.5547 27.1966 34.4284 25.2542 36.7397 25.2542C39.051 25.2542 40.9246 27.1966 40.9246 29.5927ZM36.7397 53.4547C39.051 53.4547 40.9246 51.5122 40.9246 49.1161C40.9246 46.72 39.051 44.7776 36.7397 44.7776C34.4284 44.7776 32.5547 46.72 32.5547 49.1161C32.5547 51.5122 34.4284 53.4547 36.7397 53.4547ZM50.3409 39.3542C50.3409 41.7503 48.4672 43.6927 46.1559 43.6927C43.8446 43.6927 41.9709 41.7503 41.9709 39.3542C41.9709 36.9581 43.8446 35.0156 46.1559 35.0156C48.4672 35.0156 50.3409 36.9581 50.3409 39.3542ZM27.3238 43.6927C29.6351 43.6927 31.5088 41.7503 31.5088 39.3542C31.5088 36.9581 29.6351 35.0156 27.3238 35.0156C25.0125 35.0156 23.1388 36.9581 23.1388 39.3542C23.1388 41.7503 25.0125 43.6927 27.3238 43.6927Z" fill="#4E416F"/>
</svg>
