<svg width="203" height="79" viewBox="0 0 203 79" fill="none" xmlns="http://www.w3.org/2000/svg">
<path d="M21.2044 47.8739C21.2044 46.932 21.4144 46.0166 21.8345 45.1277C22.0275 45.1277 22.3284 45.1648 22.7371 45.2388C23.1572 45.3023 23.5944 45.387 24.0485 45.4928C23.9804 42.6356 23.9463 40.2916 23.9463 38.4608C23.9463 36.1856 23.9917 34.2437 24.0826 32.6352L21.4598 32.3018C21.3122 31.9103 21.1987 31.4817 21.1192 31.0161C21.0397 30.5399 21 30.0795 21 29.6351C21 29.2964 21.0284 28.926 21.0852 28.5239C22.4363 28.0477 24.2131 27.7038 26.4158 27.4921C28.6298 27.2699 30.8609 27.1588 33.1089 27.1588C35.2321 27.1588 36.7705 27.2487 37.7243 27.4286C38.3374 27.7778 38.871 28.1324 39.3252 28.4922C39.7907 28.8414 40.2335 29.2753 40.6536 29.7938C40.6536 30.5346 40.5741 31.3388 40.4151 32.2066C40.2675 33.0638 40.0575 33.8522 39.785 34.5718C39.5239 35.2914 39.24 35.8099 38.9335 36.1274C38.6723 36.2438 38.3828 36.3337 38.0649 36.3972C37.747 36.4501 37.3553 36.4766 36.8898 36.4766C36.481 36.4766 36.1291 36.4448 35.8339 36.3814C35.55 36.3073 35.2775 36.2015 35.0164 36.0639L34.4373 32.6034C33.722 32.4976 32.8705 32.4447 31.8827 32.4447C31.6102 32.4447 31.3377 32.4606 31.0652 32.4923C31.0198 34.0268 30.7871 36.1168 30.367 38.7624C32.8875 38.3708 35.0391 38.0851 36.8216 37.9052C37.2758 38.5507 37.5029 39.3391 37.5029 40.2704C37.5029 40.8842 37.412 41.4768 37.2304 42.0482C37.0487 42.6197 36.85 43.0165 36.6343 43.2388C36.1574 43.3128 35.5897 43.3499 34.9312 43.3499C34.0797 43.3499 33.1941 43.2811 32.2744 43.1435C31.3661 43.0059 30.5146 42.8049 29.7198 42.5403L29.4984 43.8896C29.3621 44.6409 29.2429 45.3817 29.1407 46.1119L39.9213 45.5246C40.0916 45.6727 40.2335 45.969 40.347 46.4135C40.4719 46.8579 40.5344 47.3447 40.5344 47.8739C40.5344 48.7205 40.3527 49.4612 39.9894 50.0962C39.6261 50.7311 39.1435 51.2232 38.5418 51.5724C37.9514 51.9111 37.3155 52.0804 36.6343 52.0804C35.9531 52.0804 35.022 51.9428 33.8412 51.6677C32.6718 51.3819 31.5307 51.0274 30.418 50.6041C29.3167 50.1808 28.5049 49.7734 27.9826 49.3819C27.4604 50.2284 26.887 50.874 26.2625 51.3184C25.6494 51.7629 24.8546 52.0169 23.8782 52.0804C23.39 52.0063 22.9415 51.7735 22.5328 51.3819C22.124 50.9904 21.8004 50.4877 21.562 49.8739C21.3236 49.2602 21.2044 48.5935 21.2044 47.8739Z" fill="#4E416F"/>
<path d="M41.514 38.9529C41.3437 38.4978 41.2074 37.974 41.1052 37.3814C41.0031 36.7888 40.952 36.212 40.952 35.6512C41.2472 34.8681 41.7581 34.2172 42.4847 33.6987C43.2227 33.1802 44.1254 32.9209 45.1926 32.9209C46.2145 32.9209 47.0376 33.2225 47.6621 33.8257C48.2979 34.4183 48.8599 35.3496 49.3482 36.6195C49.8591 37.9528 50.2735 39.5296 50.5914 41.3498C50.9093 43.17 51.1307 45.133 51.2556 47.2389L51.7495 47.2548C52.2491 46.3235 52.6805 44.9954 53.0438 43.2705C53.4072 41.535 53.5945 39.8894 53.6059 38.3338L51.477 37.9846C51.3294 37.4661 51.2272 37.011 51.1705 36.6195C51.1137 36.2173 51.0853 35.7782 51.0853 35.3019L51.1023 34.8575C51.3067 34.5823 51.6473 34.2966 52.1242 34.0003C52.601 33.704 53.1687 33.4553 53.8273 33.2542C54.4971 33.0532 55.1954 32.9526 55.9221 32.9526C58.8514 32.9526 60.316 34.3231 60.316 37.0639C60.316 38.6936 60.0038 40.4397 59.3793 42.3022C58.7549 44.1541 57.8522 45.9214 56.6714 47.604C55.502 49.2866 54.1225 50.6729 52.5329 51.7629C51.9766 51.9745 51.2215 52.0804 50.2678 52.0804C49.7569 52.0804 49.1835 51.9745 48.5477 51.7629C47.9119 51.5618 47.4407 51.3502 47.1341 51.128L46.7765 50.0168C45.959 47.4347 45.221 45.2124 44.5625 43.3499C43.904 41.4768 43.3022 40.0852 42.7572 39.1751L41.514 38.9529Z" fill="#4E416F"/>
<path d="M61.7044 42.5403C61.7044 40.7096 62.0336 39.0746 62.6922 37.6354C63.3507 36.1962 64.3669 35.0586 65.7407 34.2225C67.1258 33.3759 68.8516 32.9526 70.918 32.9526C71.9967 32.9526 73.0753 33.0743 74.1539 33.3177C75.2325 33.5506 76.1465 33.9421 76.8959 34.4924C77.5885 35.0109 78.088 35.6988 78.3946 36.556C78.7125 37.4026 78.8714 38.3444 78.8714 39.3815C78.8714 40.0693 78.809 40.7731 78.6841 41.4927C78.5479 41.7043 78.281 41.9847 77.8837 42.334C77.4863 42.6726 77.0208 43.0059 76.4871 43.334C75.9535 43.6621 75.4369 43.916 74.9373 44.0959C74.4605 44.1277 73.9666 44.1436 73.4556 44.1436C72.5587 44.1436 71.6504 44.1065 70.7307 44.0324C69.811 43.9584 69.0049 43.8737 68.3123 43.7785C68.4032 44.678 68.6984 45.4611 69.1979 46.1278C69.6975 46.7945 70.4923 47.1278 71.5822 47.1278C71.6844 47.1278 71.8491 47.1172 72.0761 47.0961C72.7687 47.0326 73.5749 46.8632 74.4945 46.5881C75.4255 46.3024 76.3509 45.9743 77.2705 45.6039C77.702 46.0061 78.0199 46.4082 78.2243 46.8103C78.4286 47.2125 78.5706 47.7892 78.65 48.5406C78.2981 48.9215 77.7247 49.3871 76.9299 49.9374C76.1465 50.4877 75.1871 50.9851 74.0517 51.4296C72.9163 51.8634 71.7299 52.0804 70.4923 52.0804C68.6302 52.0804 67.035 51.6624 65.7066 50.8264C64.3896 49.9798 63.3904 48.8369 62.7092 47.3976C62.0393 45.9479 61.7044 44.3287 61.7044 42.5403ZM72.6722 38.8894C72.5133 38.7306 72.2464 38.609 71.8718 38.5243C71.4971 38.429 71.1054 38.3814 70.6966 38.3814C70.3674 38.3814 70.0324 38.4079 69.6918 38.4608C69.3626 38.5137 69.1639 38.5719 69.0957 38.6354C68.7097 39.3444 68.4656 40.1487 68.3634 41.0482L72.9107 40.6355L72.6722 38.8894Z" fill="#4E416F"/>
<path d="M82.5079 47.5088C82.5079 47.0537 82.5192 45.9373 82.5419 44.1594C82.576 40.6672 82.593 38.7571 82.593 38.429L81.0262 38.1909C80.8105 37.5877 80.6572 37.0216 80.5664 36.4925C80.4755 35.9633 80.4301 35.4289 80.4301 34.8892C80.4301 34.667 80.4358 34.4977 80.4471 34.3813C80.6402 34.2225 80.941 34.0321 81.3498 33.8098C81.7585 33.5876 82.2411 33.3918 82.7974 33.2225C83.3537 33.0426 83.9214 32.9526 84.5005 32.9526C85.8516 32.9526 86.828 33.2331 87.4298 33.794C88.0429 34.3548 88.3494 35.175 88.3494 36.2544C88.3494 36.9105 88.2586 37.7518 88.077 38.7783C87.9066 39.7942 87.7307 40.5191 87.549 40.953L88.1621 41.0482L89.184 37.4608C89.6381 35.8417 90.2058 34.6882 90.887 34.0003C91.5683 33.3019 92.3347 32.9526 93.1862 32.9526C93.7425 32.9526 94.2932 33.032 94.8382 33.1908C95.3945 33.3495 95.8203 33.5453 96.1155 33.7781C96.4334 34.4342 96.5924 35.3072 96.5924 36.3972C96.5924 37.1592 96.5129 37.9158 96.3539 38.6672C96.195 39.4079 95.9906 40.0058 95.7408 40.4609L92.1644 40.0164C91.4377 40.736 90.6656 41.7361 89.8482 43.0165C89.0307 44.2864 88.3778 45.4558 87.8896 46.5246L87.8726 47.35L91.1766 46.6198C91.7329 47.4135 92.0565 48.3554 92.1473 49.4454C92.1473 49.5088 91.8919 49.7681 91.3809 50.2232C90.87 50.6782 90.1945 51.1015 89.3543 51.493C88.5254 51.874 87.5717 52.0645 86.4931 52.0645C85.3804 52.0645 84.4494 51.7894 83.7 51.2391C82.962 50.6782 82.5703 49.7364 82.5249 48.4136C82.5135 48.2548 82.5079 47.9532 82.5079 47.5088Z" fill="#4E416F"/>
<path d="M99.1218 46.1595C100.121 46.5299 100.921 46.8156 101.523 47.0167C102.125 47.2178 102.783 47.3924 103.499 47.5405C104.225 47.6887 104.946 47.7627 105.662 47.7627C105.98 47.7627 106.207 47.7363 106.343 47.6834C106.377 47.641 106.405 47.5776 106.428 47.4929C106.462 47.3976 106.479 47.3024 106.479 47.2072C106.479 46.9955 106.349 46.8209 106.087 46.6833C105.679 46.4717 104.952 46.1383 103.907 45.6833C102.477 45.0484 101.341 44.4822 100.501 43.9848C99.6724 43.4874 98.9685 42.826 98.3895 42.0006C97.8218 41.1752 97.5379 40.1381 97.5379 38.8894C97.5379 37.101 98.1113 35.667 99.258 34.5876C100.405 33.4976 102.221 32.9526 104.708 32.9526C107.671 32.9526 109.976 33.3125 111.622 34.0321C111.702 34.3389 111.742 34.7252 111.742 35.1908C111.742 36.0798 111.594 36.9898 111.299 37.9211C111.004 38.8418 110.618 39.5243 110.141 39.9688C109.494 39.7677 108.58 39.445 107.399 39.0005C106.536 38.683 105.849 38.4396 105.338 38.2703C104.838 38.0904 104.379 37.9634 103.959 37.8893C103.731 37.9423 103.55 38.0692 103.414 38.2703C103.277 38.4608 103.209 38.6883 103.209 38.9529C103.209 39.1857 103.283 39.3815 103.431 39.5402C103.578 39.6989 103.743 39.8259 103.924 39.9212C104.117 40.0058 104.39 40.1222 104.742 40.2704C104.924 40.3445 105.094 40.4133 105.253 40.4767C105.412 40.5297 105.559 40.5826 105.696 40.6355C106.581 40.9847 107.28 41.2704 107.79 41.4927C108.301 41.7149 108.795 41.9795 109.272 42.2863C110.146 42.8472 110.833 43.4874 111.333 44.2071C111.832 44.9267 112.082 45.715 112.082 46.5722C112.082 47.7575 111.719 48.7839 110.992 49.6517C110.277 50.5089 109.357 51.1332 108.233 51.5248C107.643 51.7259 106.996 51.8687 106.292 51.9534C105.599 52.0486 104.787 52.0962 103.856 52.0962C102.755 52.0962 101.62 51.9005 100.45 51.5089C99.2921 51.1068 98.4065 50.4401 97.7934 49.5088C97.8047 48.8633 97.8956 48.3024 98.0659 47.8262C98.2475 47.3394 98.5995 46.7839 99.1218 46.1595Z" fill="#4E416F"/>
<path d="M113.181 31.0002C113.011 30.3547 112.897 29.8203 112.84 29.397C112.784 28.9631 112.761 28.4657 112.772 27.9048C113.011 27.6191 113.38 27.3334 113.879 27.0477C114.39 26.7514 114.981 26.5027 115.651 26.3016C116.332 26.1005 117.036 26 117.762 26C119.182 26 120.272 26.3333 121.032 27C121.793 27.6667 122.173 28.6509 122.173 29.9525C122.173 30.8838 122.088 32.3812 121.918 34.4448C121.748 36.5083 121.503 38.7042 121.186 41.0323C120.868 43.3499 120.504 45.3764 120.096 47.1119L120.13 47.1437L122.65 46.1595C123.536 46.8685 124.052 47.8104 124.2 48.985C124.2 49.0591 123.945 49.366 123.434 49.9057C122.923 50.4348 122.247 50.9322 121.407 51.3978C120.578 51.8528 119.624 52.0804 118.546 52.0804C117.422 52.0804 116.508 51.7894 115.804 51.2073C115.111 50.6253 114.782 49.6305 114.816 48.2231L114.85 45.3658C114.861 42.6567 114.89 40.2175 114.935 38.0481C114.992 35.8787 115.106 33.6405 115.276 31.3335L113.181 31.0002Z" fill="#4E416F"/>
<path d="M125.231 42.3816C125.231 40.4662 125.56 38.8047 126.219 37.3973C126.877 35.9898 127.888 34.8998 129.25 34.1273C130.612 33.3442 132.321 32.9526 134.376 32.9526C136.647 32.9526 138.43 33.3495 139.724 34.1432C141.018 34.9263 141.921 36.0163 142.432 37.4131C142.954 38.81 143.215 40.5191 143.215 42.5403C143.215 44.3711 142.869 46.0061 142.176 47.4453C141.495 48.8739 140.462 50.0062 139.077 50.8422C137.703 51.6677 136.017 52.0804 134.019 52.0804C130.93 52.0804 128.694 51.1967 127.308 49.4295C125.923 47.6516 125.231 45.3023 125.231 42.3816ZM134.717 47.4294C135.296 47.4294 135.648 47.3871 135.773 47.3024C136.034 46.8791 136.233 46.2812 136.369 45.5087C136.505 44.7362 136.573 43.9002 136.573 43.0007C136.573 42.1752 136.516 41.4027 136.403 40.6831C136.289 39.9529 136.13 39.3815 135.926 38.9688C135.801 38.8312 135.551 38.7306 135.177 38.6672C134.802 38.5931 134.393 38.556 133.951 38.556C133.371 38.556 132.974 38.6142 132.758 38.7306C132.191 39.6407 131.907 40.9053 131.907 42.5244C131.907 43.2864 131.969 44.0642 132.094 44.8579C132.219 45.6516 132.378 46.3712 132.571 47.0167C132.707 47.1543 132.985 47.2601 133.406 47.3342C133.826 47.3977 134.263 47.4294 134.717 47.4294Z" fill="#4E416F"/>
<path d="M144.723 38.9529C144.382 38.0428 144.212 36.9687 144.212 35.7305C144.518 34.9369 145.024 34.2702 145.728 33.7305C146.432 33.1908 147.317 32.9209 148.384 32.9209C149.066 32.9209 149.656 33.0532 150.156 33.3177C150.655 33.5717 151.109 33.9633 151.518 34.4924C152.143 35.3178 152.625 36.4607 152.966 37.9211C153.261 39.2016 153.505 40.699 153.698 42.4133C153.902 44.1171 154.005 45.7256 154.005 47.2389L154.669 47.2548C155.134 45.7944 155.509 44.4028 155.793 43.08C156.077 41.7572 156.287 40.1804 156.423 38.3497L154.413 37.9846C154.243 37.4131 154.124 36.9211 154.056 36.5083C153.988 36.085 153.954 35.6353 153.954 35.1591C153.954 34.8839 154.181 34.5718 154.635 34.2225C155.089 33.8627 155.674 33.5611 156.389 33.3177C157.116 33.0743 157.865 32.9526 158.637 32.9526C161.555 32.9526 163.014 34.3231 163.014 37.0639C163.014 37.9423 162.81 38.9053 162.401 39.9529C163.059 42.0694 163.548 44.5034 163.865 47.2548L164.172 47.2707C164.638 46.2547 165.058 44.879 165.432 43.1435C165.818 41.3974 166.011 39.7836 166.011 38.3021L164.342 38.0005C164.172 37.429 164.053 36.9369 163.985 36.5242C163.917 36.1009 163.883 35.6512 163.883 35.175C163.883 34.8998 164.081 34.5876 164.479 34.2384C164.887 33.8786 165.427 33.577 166.097 33.3336C166.766 33.0796 167.476 32.9526 168.225 32.9526C171.211 32.9526 172.705 34.4077 172.705 37.3179C172.705 39.1063 172.347 40.9635 171.632 42.8895C170.916 44.8155 170.048 46.5722 169.026 48.1596C168.004 49.7469 167.039 50.9798 166.131 51.8581C165.563 52.0063 164.95 52.0804 164.291 52.0804C163.508 52.0804 162.747 51.9798 162.009 51.7788C161.283 51.5883 160.692 51.3079 160.238 50.9375C160.158 50.6835 160.017 49.9851 159.812 48.8422C159.517 47.2336 159.29 46.0748 159.131 45.3658H158.79C158.166 47.9056 157.246 50.0327 156.031 51.747C155.407 51.9693 154.606 52.0804 153.63 52.0804C152.801 52.0804 152.012 51.9957 151.263 51.8264C150.513 51.6677 149.951 51.4296 149.577 51.1121C149.429 50.1385 149.134 48.8157 148.691 47.1437C148.248 45.4716 147.76 43.879 147.226 42.3657C146.704 40.8524 146.244 39.7836 145.847 39.1592L144.723 38.9529Z" fill="#4E416F"/>
<path d="M174.536 27.4762C175.126 27.0953 175.983 26.7566 177.107 26.4603C178.231 26.1534 179.299 26 180.309 26C181.161 26 181.853 26.1217 182.387 26.3651C182.387 28.0689 182.279 30.2065 182.063 32.778C181.848 35.339 181.547 38.4608 181.161 42.1435C180.922 42.5244 180.548 42.8313 180.037 43.0642C179.537 43.2864 179.003 43.3975 178.436 43.3975C178.004 43.3975 177.59 43.3287 177.192 43.1911C176.795 43.0536 176.449 42.8472 176.154 42.5721L174.536 27.4762ZM178.691 45.3976C180.19 45.3976 181.28 45.7045 181.961 46.3182C182.654 46.9214 183 47.6834 183 48.604C183 49.2178 182.79 49.7946 182.37 50.3343C181.961 50.8634 181.422 51.2867 180.752 51.6042C180.093 51.9216 179.406 52.0804 178.691 52.0804C177.976 52.0804 177.283 51.9216 176.613 51.6042C175.955 51.2867 175.416 50.8634 174.995 50.3343C174.587 49.7946 174.382 49.2178 174.382 48.604C174.382 47.6834 174.723 46.9214 175.404 46.3182C176.097 45.7045 177.192 45.3976 178.691 45.3976Z" fill="#4E416F"/>
</svg>
