<svg width="629" height="752" viewBox="0 0 629 752" fill="none" xmlns="http://www.w3.org/2000/svg">
<path d="M623.696 13.2263C628.988 21.0702 629.982 28.9975 628.004 37.3597C627.377 40.0055 626.446 42.61 625.417 45.1299C567.398 187.471 509.358 329.8 451.311 472.12C419.443 550.245 387.575 628.371 355.7 706.488C352.702 713.835 349.741 721.197 346.675 728.507C343.668 735.68 339.519 742.004 333.035 746.578C325.6 751.841 317.392 753.452 308.908 750.301C299.635 746.86 292.303 741.368 288.221 731.432C266.248 677.896 243.815 624.535 221.585 571.105C202.028 524.101 182.534 477.068 162.987 430.058C144.022 384.431 125.047 338.81 106.056 293.186C86.4413 246.056 66.7919 198.936 47.1771 151.807C32.8009 117.286 18.3112 82.8017 4.22799 48.1649C2.07651 42.8725 0.875596 36.7683 0.952451 31.0636C1.18851 11.8087 17.9391 -0.836213 36.6577 3.76482C41.11 4.85944 45.5619 6.60227 49.554 8.86465C132.419 55.7226 215.215 102.682 298.03 149.629C299.105 150.236 300.207 150.783 301.247 151.44C310.479 157.335 319.472 156.39 328.648 151.033C362.19 131.478 395.789 112.009 429.446 92.6236C463.213 73.1776 497.093 53.9171 530.876 34.5152C547.349 25.0505 563.733 15.4127 580.183 5.89442C595.568 -3.02289 609.863 -1.48032 621.282 10.3045C622.326 11.3732 623.197 12.6143 623.696 13.2263ZM87.6901 97.705C89.7797 102.805 91.3715 106.727 93.001 110.624C114.903 163.022 136.843 215.395 158.701 267.81C182.036 323.756 205.302 379.722 228.565 435.703C249.206 485.375 269.793 535.07 290.414 584.755C294.657 594.967 298.827 605.215 303.177 615.382C305.891 621.725 307.545 622.393 313.916 620.694C315.757 620.2 317.625 619.743 319.516 619.505C326.54 618.603 327.392 617.789 327.369 610.801C327.231 571.7 327.015 532.583 326.887 493.475C326.622 409.102 326.373 324.733 326.221 240.366C326.21 234.349 323.821 230.431 318.619 227.503C243.12 185.052 167.681 142.505 92.2261 99.9972C91.085 99.3531 89.8912 98.8138 87.7058 97.708L87.6901 97.705Z" fill="white"/>
</svg>
