<svg width="203" height="79" viewBox="0 0 203 79" fill="none" xmlns="http://www.w3.org/2000/svg">
<path d="M20 53.4738H41.7738V50.7121H20V53.4738Z" fill="#4E416F"/>
<path d="M41.449 53.4738H63.2228V50.7121H41.449V53.4738Z" fill="#4E416F"/>
<path d="M65.5373 49.6436H79.7398V46.4053H68.9848V25.9723H65.5373V49.6436Z" fill="#4E416F"/>
<path d="M88.924 50.1203C90.2107 50.1203 91.3488 49.8902 92.3385 49.4299C93.3393 48.9696 94.164 48.334 94.8128 47.5231V49.6436H97.881V31.8901H94.4005V41.1285C94.4005 42.5313 94.197 43.6546 93.7901 44.4984C93.3832 45.3313 92.8334 45.934 92.1406 46.3066C91.4588 46.6792 90.7055 46.8655 89.8808 46.8655C88.935 46.8655 88.1652 46.6737 87.5714 46.2902C86.9776 45.9066 86.5212 45.4025 86.2023 44.7779C85.8834 44.1532 85.6635 43.4792 85.5425 42.7559C85.4325 42.0217 85.3775 41.3094 85.3775 40.6189V31.8901H81.8805V41.7532C81.8805 42.3011 81.93 42.9368 82.029 43.66C82.128 44.3833 82.3149 45.1231 82.5898 45.8792C82.8648 46.6354 83.2606 47.3368 83.7775 47.9833C84.3053 48.619 84.9872 49.134 85.8229 49.5286C86.6587 49.9231 87.6924 50.1203 88.924 50.1203Z" fill="#4E416F"/>
<path d="M102.161 49.6436H105.625V38.5477C105.625 37.3422 105.955 36.3669 106.615 35.6217C107.286 34.8765 108.165 34.5039 109.254 34.5039C110.354 34.5039 111.228 34.8765 111.877 35.6217C112.537 36.3559 112.866 37.3641 112.866 38.6463L112.85 49.6436H116.297L116.314 38.5477C116.314 37.2107 116.671 36.2025 117.386 35.523C118.112 34.8436 118.964 34.5039 119.943 34.5039C121.021 34.5039 121.889 34.8655 122.549 35.5888C123.209 36.3121 123.539 37.3093 123.539 38.5806L123.522 49.6436H126.97L126.986 37.7587C126.986 35.8518 126.453 34.323 125.386 33.1723C124.331 32.0217 122.846 31.4463 120.933 31.4463C119.767 31.4463 118.711 31.7038 117.766 32.2189C116.82 32.723 116.072 33.4244 115.522 34.323C115.049 33.4244 114.373 32.723 113.493 32.2189C112.624 31.7038 111.574 31.4463 110.343 31.4463C109.276 31.4463 108.297 31.66 107.406 32.0874C106.527 32.5038 105.801 33.0737 105.229 33.797V31.8901H102.161V49.6436Z" fill="#4E416F"/>
<path d="M135.971 50.1368C138.808 50.1368 140.947 49.1121 142.388 47.0628V49.6436H145.439V38.7121C145.439 37.9669 145.406 37.271 145.34 36.6244C145.274 35.9778 145.098 35.3641 144.812 34.7833C144.263 33.6107 143.394 32.7559 142.206 32.2189C141.029 31.671 139.644 31.397 138.049 31.397C135.993 31.397 134.343 31.8463 133.101 32.7449C131.858 33.6436 131.022 34.8545 130.593 36.3778L133.81 37.3641C134.118 36.3778 134.662 35.6655 135.443 35.2271C136.224 34.7888 137.082 34.5696 138.016 34.5696C139.402 34.5696 140.403 34.8655 141.018 35.4573C141.645 36.0381 141.986 36.9422 142.041 38.1696C140.59 38.3669 139.171 38.5751 137.785 38.7943C136.4 39.0025 135.19 39.2545 134.156 39.5504C132.782 39.9888 131.737 40.6409 131.022 41.5066C130.308 42.3724 129.95 43.4737 129.95 44.8107C129.95 45.7751 130.176 46.6628 130.626 47.4737C131.088 48.2738 131.765 48.9203 132.655 49.4135C133.557 49.8957 134.662 50.1368 135.971 50.1368ZM136.581 47.3258C135.482 47.3258 134.668 47.0737 134.14 46.5696C133.623 46.0655 133.365 45.4683 133.365 44.7779C133.365 44.0765 133.596 43.5231 134.057 43.1176C134.53 42.7121 135.119 42.3888 135.822 42.1477C136.57 41.9285 137.45 41.7367 138.462 41.5724C139.484 41.408 140.667 41.2272 142.008 41.0299C141.997 41.4463 141.97 41.9121 141.926 42.4272C141.882 42.9422 141.788 43.4025 141.645 43.808C141.513 44.3888 141.233 44.9477 140.804 45.4847C140.386 46.0217 139.82 46.4655 139.105 46.8162C138.401 47.1559 137.56 47.3258 136.581 47.3258Z" fill="#4E416F"/>
<path d="M149.376 49.6436H152.873V40.4052C152.873 39.0025 153.077 37.8847 153.484 37.0518C153.901 36.208 154.451 35.5997 155.133 35.2271C155.815 34.8545 156.568 34.6682 157.393 34.6682C158.339 34.6682 159.108 34.86 159.702 35.2436C160.296 35.6271 160.752 36.1313 161.071 36.7559C161.39 37.3806 161.605 38.06 161.715 38.7943C161.836 39.5176 161.896 40.2244 161.896 40.9148V49.6436H165.393V39.7806C165.393 39.2326 165.344 38.597 165.245 37.8737C165.146 37.1504 164.959 36.4107 164.684 35.6545C164.409 34.8984 164.007 34.2025 163.48 33.5669C162.963 32.9203 162.286 32.3997 161.451 32.0052C160.615 31.6107 159.581 31.4134 158.35 31.4134C157.063 31.4134 155.919 31.6436 154.919 32.1038C153.929 32.5641 153.11 33.1997 152.461 34.0107V31.8901H149.376V49.6436Z" fill="#4E416F"/>
<path d="M169.69 28.9805H173.137V25.6436H169.69V28.9805ZM169.69 49.6436H173.137V31.8901H169.69V49.6436Z" fill="#4E416F"/>
<path d="M178.355 49.6436H182V46.0107H178.355V49.6436Z" fill="#4E416F"/>
<path d="M20.1748 53.7128H41.9486V50.9512H20.1748V53.7128Z" fill="#4E416F"/>
<path d="M41.6238 53.7128H63.3976V50.9512H41.6238V53.7128Z" fill="#4E416F"/>
</svg>
